<svg xmlns="http://www.w3.org/2000/svg" viewBox="0 0 48 48" fill="none">
  <defs>
    <linearGradient id="faviconGradient" x1="0%" y1="0%" x2="100%" y2="100%">
      <stop offset="0%" style="stop-color:#0d6efd"/>
      <stop offset="50%" style="stop-color:#4a9eff"/>
      <stop offset="100%" style="stop-color:#f57c00"/>
    </linearGradient>
  </defs>
  
  <!-- Compact G -->
  <path d="M24 8 C30 8, 36 14, 36 20 C36 24, 34 27, 31 29 L26 29 L26 24 L32 24 C32 22, 32 18, 28 15 C24 12, 20 12, 16 15 C12 18, 12 22, 12 26 C12 30, 12 34, 16 37 C20 40, 24 40, 28 37 C29 36, 30 35, 31 33 L36 34 C35 37, 33 39, 30 41 C26 44, 20 44, 15 40 C11 37, 10 33, 10 26 C10 19, 12 15, 16 12 C20 9, 28 8, 24 8 Z" 
        fill="url(#faviconGradient)"/>
  
  <!-- Lightning bolt -->
  <path d="M26 18 L23 23 L26 23 L24 28 L28 24 L25 24 L27 18 Z" 
        fill="#4a9eff" 
        opacity="0.9"/>
</svg>